<mxfile host="Electron" agent="Mozilla/5.0 (Macintosh; Intel Mac OS X 10_15_7) AppleWebKit/537.36 (KHTML, like Gecko) draw.io/25.0.2 Chrome/128.0.6613.186 Electron/32.2.5 Safari/537.36" version="25.0.2">
  <diagram name="Seite-1" id="OxqFUhgyxo7UcgIjh18e">
    <mxGraphModel dx="1745" dy="518" grid="1" gridSize="10" guides="1" tooltips="1" connect="1" arrows="1" fold="1" page="1" pageScale="1" pageWidth="827" pageHeight="1169" math="0" shadow="0">
      <root>
        <mxCell id="0" />
        <mxCell id="1" parent="0" />
        <mxCell id="Z7_Ja73_4YOo7aMcWDAO-1" value="User" style="swimlane;fontStyle=4;align=center;verticalAlign=top;childLayout=stackLayout;horizontal=1;startSize=30;horizontalStack=0;resizeParent=1;resizeParentMax=0;resizeLast=0;collapsible=0;marginBottom=0;html=1;whiteSpace=wrap;" parent="1" vertex="1">
          <mxGeometry x="-110" y="90" width="140" height="180" as="geometry" />
        </mxCell>
        <mxCell id="Z7_Ja73_4YOo7aMcWDAO-2" value="userID:&amp;nbsp;&lt;span style=&quot;white-space: pre;&quot;&gt;&#x9;&lt;span style=&quot;white-space: pre;&quot;&gt;&#x9;&lt;/span&gt;int&lt;/span&gt;&lt;div&gt;Username:&lt;span style=&quot;white-space: pre;&quot;&gt;&#x9;&lt;/span&gt;string&lt;/div&gt;&lt;div&gt;password:&lt;span style=&quot;white-space: pre;&quot;&gt;&#x9;&lt;/span&gt;string&lt;/div&gt;&lt;div&gt;accessToken:&lt;span style=&quot;white-space: pre;&quot;&gt;&#x9;&lt;/span&gt;string&lt;/div&gt;&lt;div&gt;&lt;br&gt;&lt;/div&gt;" style="html=1;strokeColor=none;fillColor=none;align=left;verticalAlign=middle;spacingLeft=4;spacingRight=4;rotatable=0;points=[[0,0.5],[1,0.5]];resizeWidth=1;whiteSpace=wrap;" parent="Z7_Ja73_4YOo7aMcWDAO-1" vertex="1">
          <mxGeometry y="30" width="140" height="100" as="geometry" />
        </mxCell>
        <mxCell id="Z7_Ja73_4YOo7aMcWDAO-3" value="" style="line;strokeWidth=1;fillColor=none;align=left;verticalAlign=middle;spacingTop=-1;spacingLeft=3;spacingRight=3;rotatable=0;labelPosition=right;points=[];portConstraint=eastwest;" parent="Z7_Ja73_4YOo7aMcWDAO-1" vertex="1">
          <mxGeometry y="130" width="140" height="8" as="geometry" />
        </mxCell>
        <mxCell id="Z7_Ja73_4YOo7aMcWDAO-4" value="login()&lt;div&gt;logout()&lt;/div&gt;" style="html=1;strokeColor=none;fillColor=none;align=left;verticalAlign=middle;spacingLeft=4;spacingRight=4;rotatable=0;points=[[0,0.5],[1,0.5]];resizeWidth=1;whiteSpace=wrap;" parent="Z7_Ja73_4YOo7aMcWDAO-1" vertex="1">
          <mxGeometry y="138" width="140" height="42" as="geometry" />
        </mxCell>
        <mxCell id="Z7_Ja73_4YOo7aMcWDAO-7" value="Media" style="swimlane;fontStyle=4;align=center;verticalAlign=top;childLayout=stackLayout;horizontal=1;startSize=30;horizontalStack=0;resizeParent=1;resizeParentMax=0;resizeLast=0;collapsible=0;marginBottom=0;html=1;whiteSpace=wrap;" parent="1" vertex="1">
          <mxGeometry x="190" y="90" width="140" height="180" as="geometry" />
        </mxCell>
        <mxCell id="Z7_Ja73_4YOo7aMcWDAO-8" value="&lt;div&gt;mediaID:&lt;span style=&quot;white-space: pre;&quot;&gt;&#x9;&lt;/span&gt;&lt;span style=&quot;white-space: pre;&quot;&gt;&#x9;&lt;/span&gt;string&lt;/div&gt;&lt;div&gt;filePath:&lt;span style=&quot;white-space: pre;&quot;&gt;&#x9;&lt;/span&gt;&lt;span style=&quot;white-space: pre;&quot;&gt;&#x9;&lt;/span&gt;string&lt;/div&gt;&lt;div&gt;caption:&lt;span style=&quot;white-space: pre;&quot;&gt;&#x9;&lt;span style=&quot;white-space: pre;&quot;&gt;&#x9;&lt;/span&gt;string&lt;/span&gt;&lt;/div&gt;&lt;div&gt;mediaType:&lt;span style=&quot;white-space: pre;&quot;&gt;&#x9;&lt;/span&gt;string&lt;/div&gt;" style="html=1;strokeColor=none;fillColor=none;align=left;verticalAlign=middle;spacingLeft=4;spacingRight=4;rotatable=0;points=[[0,0.5],[1,0.5]];resizeWidth=1;whiteSpace=wrap;" parent="Z7_Ja73_4YOo7aMcWDAO-7" vertex="1">
          <mxGeometry y="30" width="140" height="100" as="geometry" />
        </mxCell>
        <mxCell id="Z7_Ja73_4YOo7aMcWDAO-9" value="" style="line;strokeWidth=1;fillColor=none;align=left;verticalAlign=middle;spacingTop=-1;spacingLeft=3;spacingRight=3;rotatable=0;labelPosition=right;points=[];portConstraint=eastwest;" parent="Z7_Ja73_4YOo7aMcWDAO-7" vertex="1">
          <mxGeometry y="130" width="140" height="8" as="geometry" />
        </mxCell>
        <mxCell id="Z7_Ja73_4YOo7aMcWDAO-10" value="validateMedia()&lt;div&gt;uploadMedia()&lt;/div&gt;" style="html=1;strokeColor=none;fillColor=none;align=left;verticalAlign=middle;spacingLeft=4;spacingRight=4;rotatable=0;points=[[0,0.5],[1,0.5]];resizeWidth=1;whiteSpace=wrap;" parent="Z7_Ja73_4YOo7aMcWDAO-7" vertex="1">
          <mxGeometry y="138" width="140" height="42" as="geometry" />
        </mxCell>
        <mxCell id="Z7_Ja73_4YOo7aMcWDAO-11" value="Scheduler" style="swimlane;fontStyle=4;align=center;verticalAlign=top;childLayout=stackLayout;horizontal=1;startSize=30;horizontalStack=0;resizeParent=1;resizeParentMax=0;resizeLast=0;collapsible=0;marginBottom=0;html=1;whiteSpace=wrap;" parent="1" vertex="1">
          <mxGeometry x="-110" y="380" width="140" height="180" as="geometry" />
        </mxCell>
        <mxCell id="Z7_Ja73_4YOo7aMcWDAO-12" value="&lt;div&gt;scheduleID:&lt;span style=&quot;white-space: pre;&quot;&gt;&#x9;&lt;/span&gt;string&lt;/div&gt;&lt;div&gt;scheduleTime:&lt;span style=&quot;white-space: pre;&quot;&gt;&#x9;&lt;/span&gt;DateTime&lt;/div&gt;" style="html=1;strokeColor=none;fillColor=none;align=left;verticalAlign=middle;spacingLeft=4;spacingRight=4;rotatable=0;points=[[0,0.5],[1,0.5]];resizeWidth=1;whiteSpace=wrap;" parent="Z7_Ja73_4YOo7aMcWDAO-11" vertex="1">
          <mxGeometry y="30" width="140" height="100" as="geometry" />
        </mxCell>
        <mxCell id="Z7_Ja73_4YOo7aMcWDAO-13" value="" style="line;strokeWidth=1;fillColor=none;align=left;verticalAlign=middle;spacingTop=-1;spacingLeft=3;spacingRight=3;rotatable=0;labelPosition=right;points=[];portConstraint=eastwest;" parent="Z7_Ja73_4YOo7aMcWDAO-11" vertex="1">
          <mxGeometry y="130" width="140" height="8" as="geometry" />
        </mxCell>
        <mxCell id="Z7_Ja73_4YOo7aMcWDAO-14" value="createSchedule()&lt;div&gt;updateSchedule()&lt;/div&gt;" style="html=1;strokeColor=none;fillColor=none;align=left;verticalAlign=middle;spacingLeft=4;spacingRight=4;rotatable=0;points=[[0,0.5],[1,0.5]];resizeWidth=1;whiteSpace=wrap;" parent="Z7_Ja73_4YOo7aMcWDAO-11" vertex="1">
          <mxGeometry y="138" width="140" height="42" as="geometry" />
        </mxCell>
        <mxCell id="Z7_Ja73_4YOo7aMcWDAO-15" value="InstagramAPI" style="swimlane;fontStyle=4;align=center;verticalAlign=top;childLayout=stackLayout;horizontal=1;startSize=30;horizontalStack=0;resizeParent=1;resizeParentMax=0;resizeLast=0;collapsible=0;marginBottom=0;html=1;whiteSpace=wrap;" parent="1" vertex="1">
          <mxGeometry x="-320" y="90" width="140" height="200" as="geometry" />
        </mxCell>
        <mxCell id="Z7_Ja73_4YOo7aMcWDAO-16" value="apiEndpoint:&lt;span style=&quot;white-space: pre;&quot;&gt;&#x9;&lt;/span&gt;string&lt;div&gt;clientId:&lt;span style=&quot;white-space: pre;&quot;&gt;&#x9;&lt;/span&gt;&lt;span style=&quot;white-space: pre;&quot;&gt;&#x9;&lt;/span&gt;string&lt;/div&gt;&lt;div&gt;clientSecret:&lt;span style=&quot;white-space: pre;&quot;&gt;&#x9;&lt;/span&gt;string&lt;/div&gt;" style="html=1;strokeColor=none;fillColor=none;align=left;verticalAlign=middle;spacingLeft=4;spacingRight=4;rotatable=0;points=[[0,0.5],[1,0.5]];resizeWidth=1;whiteSpace=wrap;" parent="Z7_Ja73_4YOo7aMcWDAO-15" vertex="1">
          <mxGeometry y="30" width="140" height="100" as="geometry" />
        </mxCell>
        <mxCell id="Z7_Ja73_4YOo7aMcWDAO-17" value="" style="line;strokeWidth=1;fillColor=none;align=left;verticalAlign=middle;spacingTop=-1;spacingLeft=3;spacingRight=3;rotatable=0;labelPosition=right;points=[];portConstraint=eastwest;" parent="Z7_Ja73_4YOo7aMcWDAO-15" vertex="1">
          <mxGeometry y="130" width="140" height="8" as="geometry" />
        </mxCell>
        <mxCell id="Z7_Ja73_4YOo7aMcWDAO-18" value="authenticateUser()&lt;div&gt;createMediaContainer()&lt;/div&gt;&lt;div&gt;publishMedia()&lt;/div&gt;" style="html=1;strokeColor=none;fillColor=none;align=left;verticalAlign=middle;spacingLeft=4;spacingRight=4;rotatable=0;points=[[0,0.5],[1,0.5]];resizeWidth=1;whiteSpace=wrap;" parent="Z7_Ja73_4YOo7aMcWDAO-15" vertex="1">
          <mxGeometry y="138" width="140" height="62" as="geometry" />
        </mxCell>
        <mxCell id="Z7_Ja73_4YOo7aMcWDAO-30" value="" style="endArrow=none;html=1;rounded=0;exitX=1;exitY=0.5;exitDx=0;exitDy=0;entryX=0;entryY=0.5;entryDx=0;entryDy=0;" parent="1" source="Z7_Ja73_4YOo7aMcWDAO-2" target="Z7_Ja73_4YOo7aMcWDAO-8" edge="1">
          <mxGeometry width="50" height="50" relative="1" as="geometry">
            <mxPoint x="70" y="200.6" as="sourcePoint" />
            <mxPoint x="140" y="200.6" as="targetPoint" />
          </mxGeometry>
        </mxCell>
        <mxCell id="Z7_Ja73_4YOo7aMcWDAO-32" value="" style="endArrow=none;html=1;rounded=0;strokeColor=default;align=center;verticalAlign=middle;fontFamily=Helvetica;fontSize=11;fontColor=default;labelBackgroundColor=default;exitX=1;exitY=0.5;exitDx=0;exitDy=0;" parent="1" source="Z7_Ja73_4YOo7aMcWDAO-12" target="Z7_Ja73_4YOo7aMcWDAO-10" edge="1">
          <mxGeometry width="50" height="50" relative="1" as="geometry">
            <mxPoint x="40" y="350" as="sourcePoint" />
            <mxPoint x="90" y="300" as="targetPoint" />
            <Array as="points">
              <mxPoint x="260" y="460" />
            </Array>
          </mxGeometry>
        </mxCell>
        <mxCell id="Z7_Ja73_4YOo7aMcWDAO-33" value="" style="endArrow=none;html=1;rounded=0;strokeColor=default;align=center;verticalAlign=middle;fontFamily=Helvetica;fontSize=11;fontColor=default;labelBackgroundColor=default;exitX=-0.007;exitY=0.69;exitDx=0;exitDy=0;exitPerimeter=0;" parent="1" source="Z7_Ja73_4YOo7aMcWDAO-12" edge="1">
          <mxGeometry width="50" height="50" relative="1" as="geometry">
            <mxPoint x="-440" y="480" as="sourcePoint" />
            <mxPoint x="-250" y="290" as="targetPoint" />
            <Array as="points">
              <mxPoint x="-250" y="480" />
            </Array>
          </mxGeometry>
        </mxCell>
        <mxCell id="LV6Geg1ds0CCxHgnDXYr-9" value="1..*" style="text;html=1;align=center;verticalAlign=middle;resizable=0;points=[];autosize=1;strokeColor=none;fillColor=none;" vertex="1" parent="1">
          <mxGeometry x="20" y="140" width="40" height="30" as="geometry" />
        </mxCell>
        <mxCell id="LV6Geg1ds0CCxHgnDXYr-10" value="1..*" style="text;html=1;align=center;verticalAlign=middle;resizable=0;points=[];autosize=1;strokeColor=none;fillColor=none;" vertex="1" parent="1">
          <mxGeometry x="150" y="140" width="40" height="30" as="geometry" />
        </mxCell>
        <mxCell id="LV6Geg1ds0CCxHgnDXYr-11" value="lädt hoch &amp;gt;" style="text;html=1;align=center;verticalAlign=middle;resizable=0;points=[];autosize=1;strokeColor=none;fillColor=none;" vertex="1" parent="1">
          <mxGeometry x="65" y="140" width="80" height="30" as="geometry" />
        </mxCell>
        <mxCell id="LV6Geg1ds0CCxHgnDXYr-12" value="1" style="text;html=1;align=center;verticalAlign=middle;resizable=0;points=[];autosize=1;strokeColor=none;fillColor=none;" vertex="1" parent="1">
          <mxGeometry x="30" y="428" width="30" height="30" as="geometry" />
        </mxCell>
        <mxCell id="LV6Geg1ds0CCxHgnDXYr-13" value="1..*" style="text;html=1;align=center;verticalAlign=middle;resizable=0;points=[];autosize=1;strokeColor=none;fillColor=none;" vertex="1" parent="1">
          <mxGeometry x="220" y="270" width="40" height="30" as="geometry" />
        </mxCell>
        <mxCell id="LV6Geg1ds0CCxHgnDXYr-14" value="wird geplant &amp;lt;" style="text;html=1;align=center;verticalAlign=middle;resizable=0;points=[];autosize=1;strokeColor=none;fillColor=none;" vertex="1" parent="1">
          <mxGeometry x="100" y="438" width="100" height="30" as="geometry" />
        </mxCell>
        <mxCell id="LV6Geg1ds0CCxHgnDXYr-15" value="1" style="text;html=1;align=center;verticalAlign=middle;resizable=0;points=[];autosize=1;strokeColor=none;fillColor=none;" vertex="1" parent="1">
          <mxGeometry x="-255" y="288" width="30" height="30" as="geometry" />
        </mxCell>
        <mxCell id="LV6Geg1ds0CCxHgnDXYr-16" value="1..*" style="text;html=1;align=center;verticalAlign=middle;resizable=0;points=[];autosize=1;strokeColor=none;fillColor=none;" vertex="1" parent="1">
          <mxGeometry x="-170" y="448" width="40" height="30" as="geometry" />
        </mxCell>
        <mxCell id="LV6Geg1ds0CCxHgnDXYr-17" value="lädt hoch &amp;gt;" style="text;html=1;align=center;verticalAlign=middle;resizable=0;points=[];autosize=1;strokeColor=none;fillColor=none;" vertex="1" parent="1">
          <mxGeometry x="-255" y="350" width="80" height="30" as="geometry" />
        </mxCell>
      </root>
    </mxGraphModel>
  </diagram>
</mxfile>
